<?xml version="1.0" encoding="UTF-8" standalone="no"?>
<!-- Created with Inkscape (http://www.inkscape.org/) -->

<svg
   xmlns:dc="http://purl.org/dc/elements/1.1/"
   xmlns:cc="http://creativecommons.org/ns#"
   xmlns:rdf="http://www.w3.org/1999/02/22-rdf-syntax-ns#"
   xmlns:svg="http://www.w3.org/2000/svg"
   xmlns="http://www.w3.org/2000/svg"
   xmlns:sodipodi="http://sodipodi.sourceforge.net/DTD/sodipodi-0.dtd"
   xmlns:inkscape="http://www.inkscape.org/namespaces/inkscape"
   id="svg3396"
   version="1.1"
   inkscape:version="0.91 r13725"
   width="100px"
   height="auto"
   y="0px" x="0px"
   style="background-color:transparent; margin:auto;"
   viewBox="0 0 2800 3000"
   sodipodi:docname="elephantAppIcon.svg"
   xml:space="preserve"
   preserveAspectRatio="none">
  <metadata
     id="metadata3402">
    <rdf:RDF>
      <cc:Work
         rdf:about="">
        <dc:format>image/svg+xml</dc:format>
        <dc:type
           rdf:resource="http://purl.org/dc/dcmitype/StillImage" />
        <dc:title></dc:title>
      </cc:Work>
    </rdf:RDF>
  </metadata>

  <path xmlns="http://www.w3.org/2000/svg" id="path3431" style="fill:slategray; padding:0;"  d="m 123.27604,993.00285 c -18.05944,-0.2109 -33.267549,-0.4646 -33.795809,-0.5637 -0.55186,-0.1035 -1.16685,-0.4951 -1.44555,-0.9205 -0.55173,-0.842 -8.68544,-19.2126 -14.94012,-33.7434 -11.02158,-25.6052 -17.24804,-44.3356 -25.72971,-77.4 -1.46023,-5.6925 -3.06868,-12.24 -3.57431,-14.55 -0.50564,-2.31 -1.4583,-6.63 -2.11702,-9.6 -3.4263,-15.44823 -5.53247,-28.9851 -6.74475,-43.35 -0.72672,-8.61123 -1.64457,-32.33343 -1.93069,-49.89936 l -0.26793,-16.44933 0.97697,-6.20067 c 1.69949,-10.78644 5.1238,-26.3514 8.26967,-37.58916 4.21451,-15.0552 10.19902,-29.34693 17.41269,-41.58366 4.18957,-7.10685 6.67291,-10.6869 11.91562,-17.17782 6.38919,-7.91037 12.32551,-14.06055 19.82507,-20.53926 6.78046,-5.85753 16.564919,-12.85947 23.531349,-16.83948 1.12758,-0.64419 2.81508,-1.61523 3.75,-2.1579 0.93492,-0.54264 4.19736,-2.20368 7.24986,-3.6912 22.24752,-10.84155 49.44977,-18.07473 83.25,-22.13655 13.11715,-1.57632 15.17168,-1.68675 31.05,-1.66914 12.98166,0.0144 15.75586,0.10137 22.05,0.6915 12.02446,1.12737 30.55017,3.77517 41.4,5.91714 10.84143,2.14026 22.35858,6.02487 33.85305,11.41824 4.99866,2.34543 16.22622,8.28162 18.34695,9.70032 0.66,0.44151 1.97541,1.2405 2.92311,1.77549 3.14856,1.77741 12.30006,8.86629 18.12,14.03598 5.4075,4.80336 12.15588,11.53359 16.64535,16.60059 2.46231,2.77905 9.26784,11.35995 9.50511,11.98467 0.096,0.25278 1.13859,1.8771 2.31684,3.6096 5.44887,8.01198 10.34496,18.03396 14.58273,29.85 2.12211,5.91699 6.99864,22.0887 13.11729,43.5 3.3006,11.55 6.67839,22.89 7.50615,25.2 0.82776,2.31 2.65476,6.58098 4.05999,9.49107 l 2.55495,5.29107 2.33625,1.36965 c 1.28493,0.7533 3.28032,1.79796 4.43424,2.32143 2.07678,0.94218 2.13135,0.94971 5.39799,0.74409 l 3.3,-0.20772 2.58792,-1.97259 2.58795,-1.97262 1.7331,-3.93219 c 3.56277,-8.08347 5.26146,-13.44996 5.83212,-18.42456 0.46455,-4.04985 0.90891,-12.48837 0.90891,-17.26068 l 0,-4.32624 13.125,-0.18609 c 19.62672,-0.27828 30.21153,-0.34275 42.63627,-0.25962 l 11.21127,0.075 -0.20346,4.425 c -0.99744,21.6924 -2.82276,36.4782 -6.18873,50.13099 -5.69106,23.08365 -15.49149,40.33155 -29.38035,51.70683 -4.08486,3.34557 -5.10003,4.06194 -10.63839,7.50687 -10.18767,6.3369 -19.52109,10.23231 -28.96161,12.08745 -3.42438,0.6729 -4.83783,0.79521 -9.15,0.79161 -5.0745,-0.004 -10.73082,-0.52137 -15.40974,-1.40895 -6.27186,-1.18977 -26.18673,-6.30699 -31.41207,-8.07147 -0.30114,-0.1017 -6.27447,8.42268 -10.39308,14.83167 -3.69429,5.74866 -10.88604,17.66793 -13.21389,21.9 -5.55531,10.0998 -11.60295,23.2431 -15.39129,33.45 -4.42107,11.9116 -9.48447,31.3194 -12.87183,49.3374 -1.09989,5.8505 -2.04654,10.713 -2.10363,10.8054 -0.0571,0.092 -1.06713,5.2956 -2.24445,11.5626 -1.17735,6.267 -2.21049,11.6314 -2.2959,11.9207 -0.14712,0.4985 -2.20482,0.5221 -39.2097,0.45 l -39.05442,-0.076 -0.22428,-2.4 c -0.82208,-8.797 -3.24458,-18.0574 -6.53039,-24.9633 -6.29981,-13.2407 -13.57624,-21.1277 -25.34533,-27.4723 -8.49367,-4.5788 -17.24732,-6.5784 -27,-6.1675 -13.80666,0.5816 -26.2051,6.1648 -36.47978,16.4274 -5.97014,5.9631 -9.82704,12.9857 -12.98169,23.6366 -0.84089,2.8391 -4.68853,19.9782 -4.68853,20.8848 0,0.1124 -1.24875,0.1843 -2.775,0.1599 -1.52625,-0.024 -17.5509,-0.217 -35.61034,-0.428 z M 379.05383,703.79123 c 3.12444,-1.47519 5.49984,-5.17272 6.21651,-9.67659 0.98319,-6.17889 -1.8771,-12.80712 -6.40668,-14.84622 -2.13204,-0.95982 -5.12064,-0.85632 -7.1388,0.2472 -5.88333,3.21702 -8.15427,11.97147 -4.90605,18.91275 2.54787,5.4447 7.48149,7.60722 12.23502,5.36286 z" xmlns:inkscape="http://www.inkscape.org/namespaces/inkscape" inkscape:connector-curvature="0"/>
</svg>

