<?xml version="1.0" encoding="UTF-8" standalone="no"?>
<!-- Created with Inkscape (http://www.inkscape.org/) -->

<svg
   xmlns:dc="http://purl.org/dc/elements/1.1/"
   xmlns:cc="http://creativecommons.org/ns#"
   xmlns:rdf="http://www.w3.org/1999/02/22-rdf-syntax-ns#"
   xmlns:svg="http://www.w3.org/2000/svg"
   xmlns="http://www.w3.org/2000/svg"
   xmlns:sodipodi="http://sodipodi.sourceforge.net/DTD/sodipodi-0.dtd"
   xmlns:inkscape="http://www.inkscape.org/namespaces/inkscape"
   id="svg3396"
   version="1.1"
   inkscape:version="0.91 r13725"
   width="1080"
   height="1080"
   viewBox="0 0 1080 1080"
   sodipodi:docname="elephants.svg">
  <metadata
     id="metadata3402">
    <rdf:RDF>
      <cc:Work
         rdf:about="">
        <dc:format>image/svg+xml</dc:format>
        <dc:type
           rdf:resource="http://purl.org/dc/dcmitype/StillImage" />
        <dc:title></dc:title>
      </cc:Work>
    </rdf:RDF>
  </metadata>
  <defs
     id="defs3400" />
  <sodipodi:namedview
     pagecolor="#ffffff"
     bordercolor="#666666"
     borderopacity="1"
     objecttolerance="10"
     gridtolerance="10"
     guidetolerance="10"
     inkscape:pageopacity="0"
     inkscape:pageshadow="2"
     inkscape:window-width="1280"
     inkscape:window-height="707"
     id="namedview3398"
     showgrid="false"
     inkscape:zoom="0.46759259"
     inkscape:cx="540"
     inkscape:cy="540"
     inkscape:window-x="0"
     inkscape:window-y="1"
     inkscape:window-maximized="1"
     inkscape:current-layer="svg3396" />
  <path
     id="path3431"
     style="fill:#000000"
     d="m 123.27604,993.00285 c -18.05944,-0.2109 -33.267549,-0.4646 -33.795809,-0.5637 -0.55186,-0.1035 -1.16685,-0.4951 -1.44555,-0.9205 -0.55173,-0.842 -8.68544,-19.2126 -14.94012,-33.7434 -11.02158,-25.6052 -17.24804,-44.3356 -25.72971,-77.4 -1.46023,-5.6925 -3.06868,-12.24 -3.57431,-14.55 -0.50564,-2.31 -1.4583,-6.63 -2.11702,-9.6 -3.4263,-15.44823 -5.53247,-28.9851 -6.74475,-43.35 -0.72672,-8.61123 -1.64457,-32.33343 -1.93069,-49.89936 l -0.26793,-16.44933 0.97697,-6.20067 c 1.69949,-10.78644 5.1238,-26.3514 8.26967,-37.58916 4.21451,-15.0552 10.19902,-29.34693 17.41269,-41.58366 4.18957,-7.10685 6.67291,-10.6869 11.91562,-17.17782 6.38919,-7.91037 12.32551,-14.06055 19.82507,-20.53926 6.78046,-5.85753 16.564919,-12.85947 23.531349,-16.83948 1.12758,-0.64419 2.81508,-1.61523 3.75,-2.1579 0.93492,-0.54264 4.19736,-2.20368 7.24986,-3.6912 22.24752,-10.84155 49.44977,-18.07473 83.25,-22.13655 13.11715,-1.57632 15.17168,-1.68675 31.05,-1.66914 12.98166,0.0144 15.75586,0.10137 22.05,0.6915 12.02446,1.12737 30.55017,3.77517 41.4,5.91714 10.84143,2.14026 22.35858,6.02487 33.85305,11.41824 4.99866,2.34543 16.22622,8.28162 18.34695,9.70032 0.66,0.44151 1.97541,1.2405 2.92311,1.77549 3.14856,1.77741 12.30006,8.86629 18.12,14.03598 5.4075,4.80336 12.15588,11.53359 16.64535,16.60059 2.46231,2.77905 9.26784,11.35995 9.50511,11.98467 0.096,0.25278 1.13859,1.8771 2.31684,3.6096 5.44887,8.01198 10.34496,18.03396 14.58273,29.85 2.12211,5.91699 6.99864,22.0887 13.11729,43.5 3.3006,11.55 6.67839,22.89 7.50615,25.2 0.82776,2.31 2.65476,6.58098 4.05999,9.49107 l 2.55495,5.29107 2.33625,1.36965 c 1.28493,0.7533 3.28032,1.79796 4.43424,2.32143 2.07678,0.94218 2.13135,0.94971 5.39799,0.74409 l 3.3,-0.20772 2.58792,-1.97259 2.58795,-1.97262 1.7331,-3.93219 c 3.56277,-8.08347 5.26146,-13.44996 5.83212,-18.42456 0.46455,-4.04985 0.90891,-12.48837 0.90891,-17.26068 l 0,-4.32624 13.125,-0.18609 c 19.62672,-0.27828 30.21153,-0.34275 42.63627,-0.25962 l 11.21127,0.075 -0.20346,4.425 c -0.99744,21.6924 -2.82276,36.4782 -6.18873,50.13099 -5.69106,23.08365 -15.49149,40.33155 -29.38035,51.70683 -4.08486,3.34557 -5.10003,4.06194 -10.63839,7.50687 -10.18767,6.3369 -19.52109,10.23231 -28.96161,12.08745 -3.42438,0.6729 -4.83783,0.79521 -9.15,0.79161 -5.0745,-0.004 -10.73082,-0.52137 -15.40974,-1.40895 -6.27186,-1.18977 -26.18673,-6.30699 -31.41207,-8.07147 -0.30114,-0.1017 -6.27447,8.42268 -10.39308,14.83167 -3.69429,5.74866 -10.88604,17.66793 -13.21389,21.9 -5.55531,10.0998 -11.60295,23.2431 -15.39129,33.45 -4.42107,11.9116 -9.48447,31.3194 -12.87183,49.3374 -1.09989,5.8505 -2.04654,10.713 -2.10363,10.8054 -0.0571,0.092 -1.06713,5.2956 -2.24445,11.5626 -1.17735,6.267 -2.21049,11.6314 -2.2959,11.9207 -0.14712,0.4985 -2.20482,0.5221 -39.2097,0.45 l -39.05442,-0.076 -0.22428,-2.4 c -0.82208,-8.797 -3.24458,-18.0574 -6.53039,-24.9633 -6.29981,-13.2407 -13.57624,-21.1277 -25.34533,-27.4723 -8.49367,-4.5788 -17.24732,-6.5784 -27,-6.1675 -13.80666,0.5816 -26.2051,6.1648 -36.47978,16.4274 -5.97014,5.9631 -9.82704,12.9857 -12.98169,23.6366 -0.84089,2.8391 -4.68853,19.9782 -4.68853,20.8848 0,0.1124 -1.24875,0.1843 -2.775,0.1599 -1.52625,-0.024 -17.5509,-0.217 -35.61034,-0.428 z M 379.05383,703.79123 c 3.12444,-1.47519 5.49984,-5.17272 6.21651,-9.67659 0.98319,-6.17889 -1.8771,-12.80712 -6.40668,-14.84622 -2.13204,-0.95982 -5.12064,-0.85632 -7.1388,0.2472 -5.88333,3.21702 -8.15427,11.97147 -4.90605,18.91275 2.54787,5.4447 7.48149,7.60722 12.23502,5.36286 z"
     inkscape:connector-curvature="0" />
  <path
     id="path3416"
     style="fill:#000000"
     d="m 588.12902,853.49829 c 4.56006,-2.12349 6.97545,-5.65923 7.11285,-10.41216 0.16929,-5.85666 -2.57883,-10.20354 -7.69464,-12.17103 -2.40258,-0.924 -5.77701,-0.76473 -8.29527,0.39153 -6.39861,2.93796 -9.55998,10.32249 -6.77409,15.82344 0.71898,1.41969 3.80724,4.70883 5.29848,5.64315 2.18325,1.36791 3.35499,1.68234 6.02364,1.61646 2.06916,-0.0511 2.88546,-0.21918 4.32903,-0.89139 z m 48.92097,192.78351 c -3.86724,-0.2481 -11.80926,-1.4483 -15.64944,-2.3649 -7.3473,-1.7536 -16.36284,-5.7574 -21.33567,-9.475 -3.20922,-2.3992 -10.34712,-9.2373 -13.14951,-12.5972 -1.05345,-1.263 -1.91538,-2.3733 -1.91538,-2.4671 0,-0.094 -0.74739,-1.3174 -1.66089,-2.7188 -5.35911,-8.2216 -9.92166,-19.96133 -12.89226,-33.17267 -0.76056,-3.3825 -1.77048,-7.7025 -2.24427,-9.6 -0.98199,-3.9329 -1.29834,-6.0322 -1.94985,-12.9396 -0.25473,-2.7007 -1.00296,-9.5679 -1.66275,-15.2604 l -1.19964,-10.35 -4.6278,-20.85 c -6.7422,-30.37629 -9.18183,-44.51013 -10.97793,-63.6 -1.39326,-14.80866 -1.63443,-22.44018 -1.22262,-38.69169 0.72384,-28.56534 2.41416,-48.26424 5.4066,-63.00831 4.63251,-22.82475 16.13544,-47.25792 28.67121,-60.9 11.11011,-12.0906 23.6514,-20.11458 42.67479,-27.30351 14.70696,-5.55777 31.87644,-8.46675 52.43541,-8.88399 16.3941,-0.3327 39.03018,1.98831 60.30001,6.18291 5.775,1.13889 11.62851,2.33457 13.00782,2.6571 l 2.50782,0.58638 2.14218,-0.89679 c 12.76932,-5.34567 25.67352,-9.86043 36.19218,-12.66243 4.96431,-1.3224 19.18173,-4.40295 23.7,-5.13519 11.31693,-1.83399 25.85415,-2.71122 40.2,-2.42583 13.54383,0.26946 19.20435,0.79254 29.70939,2.74533 26.04561,4.8417 48.25802,12.83646 69.5906,25.0473 14.62488,8.37132 34.09461,25.08153 44.53206,38.2203 16.00105,20.14227 27.09455,42.86514 33.62215,68.86842 1.3168,5.24529 1.4074,5.87118 1.6505,11.4 0.1414,3.2175 0.3321,17.9325 0.4237,32.7 0.1833,29.54673 0.3772,34.55208 2.156,55.65 0.5963,7.0728 2.6828,24.56703 3.4528,28.95 2.2575,12.85017 6.7831,24.15633 13.5693,33.9 3.1517,4.5251 3.6357,6.3343 2.5282,9.45 -0.915,2.5743 -3.3207,4.65 -5.3891,4.65 -3.8796,0 -9.7182,-4.3477 -13.2949,-9.9 -0.7972,-1.2375 -2.1622,-3.3511 -3.0334,-4.697 -1.8442,-2.8491 -3.8967,-6.6343 -5.0987,-9.403 -1.5868,-3.65523 -7.5787,-13.5 -8.2166,-13.5 -0.1226,0 -0.308,0.57375 -0.4119,1.275 -0.1039,0.70125 -0.2614,21.8625 -0.35,47.025 -0.1849,52.54967 -0.4345,64.94757 -1.3684,67.97127 -1.2099,3.9171 -3.5591,6.5657 -7.6428,8.6167 -1.1665,0.5859 -2.854,1.2239 -3.75,1.4178 -1.1767,0.2545 -11.95665,0.3928 -38.82891,0.4979 l -37.2,0.1456 -2.46063,-0.9454 c -4.92411,-1.8918 -7.19706,-3.9001 -9.5331,-8.4231 l -1.35627,-2.626 -0.007,-12.5523 c -0.008,-14.4804 -0.47213,-44.65967 -0.77273,-50.27747 -0.14322,-2.6765 -0.3135,-3.825 -0.56712,-3.825 -0.19935,0 -2.64408,1.3622 -5.4327,3.0272 -11.81289,7.053 -25.34586,12.262 -36.57024,14.0762 -5.66466,0.9156 -18.33639,1.1587 -24.75,0.4749 -12.4644,-1.3291 -25.50948,-5.6977 -40.68246,-13.624 -3.81285,-1.9919 -7.27095,-3.7065 -7.68468,-3.8103 -0.71811,-0.1802 -0.76029,-0.1164 -0.93009,1.4086 -0.0979,0.8786 -0.31305,12.4649 -0.47823,25.7474 -0.42159,33.89827 -0.54171,38.57637 -1.03605,40.35007 -1.08612,3.8968 -3.9387,7.0469 -8.50563,9.3928 l -3.03156,1.5572 -38.46438,0 -38.46436,0 -2.81982,-1.3808 c -3.22263,-1.5781 -4.85616,-2.8384 -6.52071,-5.0309 -1.68054,-2.2134 -2.2464,-3.6818 -2.57592,-6.6846 -0.16017,-1.4595 -0.48876,-23.6462 -0.73017,-49.30377 -0.63108,-67.06362 -0.55743,-64.96734 -2.54529,-72.45 -3.23766,-12.18699 -8.81334,-19.8372 -16.68066,-22.88691 -3.38274,-1.3113 -6.13074,-1.65831 -11.89299,-1.50183 -5.15718,0.14007 -6.80634,0.50547 -7.39443,1.63833 -0.15714,0.30273 -0.44742,1.67823 -0.64512,3.05667 -0.60228,4.19967 -2.90877,10.11012 -5.63649,14.44374 -1.64106,2.60721 -5.02566,5.83725 -8.33097,7.95051 -4.24896,2.71659 -8.33886,4.43835 -13.81473,5.81565 -2.57046,0.64653 -4.92102,1.39944 -5.22345,1.67316 -1.51485,1.37091 -1.92078,6.85734 -1.94307,26.26068 -0.021,18.38 0.37665,26.3908 1.95873,39.45 0.90249,7.4496 2.37261,14.34474 3.86661,18.13507 1.77003,4.4906 5.37012,9.2632 7.91775,10.4965 1.53126,0.7413 4.32372,0.8263 6.1362,0.1868 1.58418,-0.5589 3.63768,-1.9278 7.63782,-5.0915 1.91037,-1.5109 3.69222,-2.6751 4.35,-2.8421 0.61278,-0.1555 3.05058,-0.5753 5.41737,-0.9328 4.45512,-0.673 6.68877,-1.3601 10.24866,-3.15293 1.14573,-0.5769 2.28552,-1.049 2.53293,-1.049 1.07415,0 2.27223,4.48573 2.90244,10.86683 0.61572,6.2345 -0.31701,12.2129 -2.62122,16.8008 -3.89982,7.765 -11.7873,13.9541 -24.02016,18.8479 -4.08513,1.6342 -6.51552,1.9478 -12.24588,1.5801 z"
     inkscape:connector-curvature="0" />
  <path
     style="fill:#000000"
     d="m 86.477223,552.37201 -4.35,-0.1626 0.0678,-4.2 c 0.0872,-5.40402 0.78692,-12.46593 1.87264,-18.9 1.132,-6.7083 1.39976,-9.32187 2.08999,-20.4 1.28711,-20.65824 1.34063,-38.91252 0.16563,-56.49714 -0.79857,-11.95119 -0.86668,-12.58155 -2.04772,-18.95286 -0.41291,-2.2275 -0.98028,-5.6025 -1.26082,-7.5 -0.69627,-4.70943 -1.225,-6.58812 -1.87087,-6.64752 -1.95948,-0.1803 -2.77357,0.17301 -5.34124,2.31813 -2.62768,2.19525 -6.17422,4.11639 -9.96136,5.39601 -3.55412,1.2009 -3.52497,1.24455 -3.47584,-5.20443 0.0407,-5.3394 0.17876,-6.02034 1.58223,-7.80303 0.48026,-0.61005 1.50331,-2.86416 2.27343,-5.00916 0.77012,-2.145 2.47093,-6.6339 3.77959,-9.9753 2.43045,-6.20574 3.45415,-9.36225 4.49976,-13.8747 0.32498,-1.4025 1.19091,-4.2375 1.92429,-6.3 0.73337,-2.0625 2.42901,-7.4625 3.76809,-12 6.1897,-20.9739 9.37785,-30.216 15.36799,-44.55 4.42497,-10.58865 16.543817,-32.21853 19.918047,-35.55 0.58491,-0.5775 2.02758,-2.41539 3.20593,-4.08423 4.14694,-5.87304 16.28993,-18.17448 25.84246,-26.17967 7.26274,-6.08631 8.46928,-6.93401 19.41855,-13.64315 8.67809,-5.31749 13.0471,-7.70098 16.5052,-9.00431 1.03194,-0.38893 3.6978,-1.62039 5.92415,-2.73657 2.22635,-1.11619 6.81635,-3.08085 10.2,-4.36592 3.38365,-1.28507 7.55062,-2.89434 9.25993,-3.57615 3.91492,-1.56159 17.37531,-5.71418 27.23486,-8.40207 10.89884,-2.97123 18.55182,-4.597 21.7976,-4.6306 2.47844,-0.0257 2.67557,0.0187 3.21572,0.72267 0.53943,0.70309 4.00055,7.12857 7.23571,13.4329 0.78545,1.5306 2.19658,3.87339 3.13584,5.20621 0.93927,1.33282 2.47925,3.68868 3.42219,5.23524 5.55404,9.10942 15.27445,20.7194 23.10819,27.60021 3.29624,2.89527 10.36024,8.14513 14.29372,10.62286 2.34804,1.47903 9.8502,5.07915 13.27968,6.37257 3.3909,1.2789 9.35661,2.98704 14.56866,4.17135 6.64062,1.50894 10.05408,1.68741 12.05466,0.63024 0.69003,-0.36465 1.33173,-0.78774 1.42596,-0.94023 0.66711,-1.0794 -1.98807,-2.46636 -8.98062,-4.69107 -5.4063,-1.72005 -6.7662,-2.34027 -15.45,-7.0464 -4.03584,-2.18718 -10.13616,-6.56843 -16.24308,-11.66578 -3.51567,-2.93448 -10.16731,-9.81259 -12.64747,-13.0781 -1.00255,-1.32 -2.5892,-3.34597 -3.52588,-4.50216 -1.87443,-2.31368 -3.6066,-4.9329 -8.33131,-12.59784 -4.29979,-6.97559 -9.41773,-17.95273 -10.42037,-22.35 -0.39503,-1.7325 -0.8543,-3.61459 -1.0206,-4.18244 -0.16629,-0.56784 -0.51845,-2.20834 -0.78258,-3.64556 -0.44444,-2.41844 -0.44262,-2.79972 0.0245,-5.11756 1.09077,-5.41231 2.05235,-8.06308 3.77648,-10.41054 0.89117,-1.21335 2.02943,-2.76225 2.52947,-3.442 2.02313,-2.75022 9.42453,-7.82238 15.67171,-10.73979 11.76697,-5.49513 34.89103,-10.96848 53.01913,-12.54935 7.58853,-0.66177 9.56274,-1.53114 21.66495,-9.54046 2.01573,-1.33402 3.97323,-2.52283 4.35,-2.64181 0.37677,-0.11899 1.65771,-0.87202 2.84649,-1.67341 1.18881,-0.80139 2.23953,-1.45708 2.33496,-1.45708 0.0954,0 3.17277,-1.48182 6.83856,-3.29293 7.95825,-3.93185 10.27992,-4.79446 20.13159,-7.47989 9.53637,-2.59948 11.44107,-2.83441 22.83345,-2.81632 10.29531,0.0163 14.48589,0.43456 17.41542,1.73807 0.98151,0.43674 4.01208,1.37389 6.73458,2.08256 4.09536,1.06603 5.67852,1.65128 9.16953,3.38973 2.32077,1.15568 4.79451,2.46419 5.49726,2.90781 0.70272,0.44361 2.71893,1.55686 4.48044,2.47389 4.88376,2.54241 15.28053,10.15188 23.37138,17.10568 14.37741,12.35689 22.32039,17.87446 30.20658,20.98293 3.80382,1.49934 7.80252,2.343 9.77211,2.06175 3.46554,-0.49488 7.45224,-2.03128 10.98609,-4.23383 2.78442,-1.73546 3.79044,-2.90543 5.89908,-6.86044 2.29458,-4.30379 2.69853,-6.38771 2.67666,-13.80901 -0.0219,-7.40448 -0.65901,-11.80434 -3.19305,-22.04713 -1.08135,-4.37091 -1.96608,-8.12181 -1.96608,-8.33532 0,-0.21351 -0.59607,-1.9023 -1.32459,-3.75288 -2.69094,-6.83546 -8.63583,-36.05934 -9.07578,-44.61467 -0.32694,-6.35808 0.85191,-16.20425 2.71515,-22.67768 1.49049,-5.17834 4.59411,-12.82908 6.19488,-15.27096 0.75765,-1.15575 2.04417,-3.22406 2.85894,-4.59625 1.52493,-2.56822 6.1656,-8.11159 8.89905,-10.63011 1.47195,-1.35622 1.63008,-1.425 3.27537,-1.425 0.95082,0 2.04519,0.14418 2.43198,0.3204 0.42915,0.19555 1.36899,1.5108 2.41164,3.375 1.91907,3.4312 2.50707,4.22697 3.34137,4.52203 0.31794,0.11244 2.21781,0.32959 4.22199,0.48257 2.00418,0.15297 3.85989,0.361 4.1238,0.46227 0.69825,0.26794 1.44927,2.04134 1.63773,3.86717 0.22227,2.15365 -0.39213,3.90777 -3.12924,8.9339 -1.23201,2.26235 -2.46327,4.82783 -2.73615,5.70107 -0.27288,0.87325 -0.87945,2.23936 -1.34793,3.0358 -0.70188,1.19322 -0.90597,2.01144 -1.15956,4.64893 -0.34908,3.63064 -0.10977,15.56658 0.36198,18.05412 0.43212,2.27862 5.98809,16.13672 8.44989,21.07635 1.13196,2.27129 2.38008,4.97129 2.77362,6 0.39351,1.02872 1.95867,4.43539 3.47811,7.57039 1.51944,3.135 3.29991,6.91433 3.95661,8.39851 0.6567,1.48418 1.63782,3.50918 2.18025,4.5 0.54246,0.99082 1.33728,2.74649 1.76631,3.90149 3.16866,8.53072 4.80228,13.4723 5.42181,16.4005 0.39558,1.86973 1.05873,4.3445 1.47366,5.4995 1.04919,2.92039 1.39938,7.75311 1.39788,19.29134 0,10.04637 -0.35607,16.73149 -1.04598,19.70866 -0.8817,3.80477 -3.85314,13.36544 -5.26803,16.95 -2.02731,5.13602 -3.54567,8.05751 -7.01289,13.49342 -4.65729,7.30171 -7.46091,10.97348 -11.23422,14.7129 -1.9182,1.90098 -4.07646,4.16669 -4.7961,5.03491 -3.52113,4.24813 -22.3932,18.99171 -32.02428,25.0186 -7.66371,4.79576 -34.41132,20.07644 -40.42206,23.09276 -1.65387,0.82995 -3.4881,1.88565 -4.07613,2.346 -0.588,0.46038 -3.02658,1.94871 -5.41908,3.30744 -6.46491,3.67143 -10.71438,6.24195 -12.9,7.80321 -1.0725,0.76611 -2.76,1.84524 -3.75,2.39805 -8.06121,4.50147 -20.19795,13.3503 -28.10466,20.49096 -4.04064,3.64917 -5.36079,4.98786 -10.40544,10.55175 -2.24403,2.475 -5.57019,6.12 -7.39149,8.1 -4.52292,4.91709 -6.44481,7.33956 -9.99627,12.6 -1.67094,2.475 -3.20928,4.69839 -3.41847,4.94088 -1.39878,1.62117 -2.66778,3.44364 -3.66195,5.25912 -0.63249,1.155 -1.85199,3.2475 -2.70999,4.65 -0.85803,1.4025 -2.41179,4.1025 -3.45285,6 -1.04106,1.8975 -2.33169,4.0575 -2.86803,4.8 -0.53637,0.7425 -1.34118,2.2275 -1.78848,3.3 -0.4473,1.0725 -2.00079,4.38 -3.45219,7.35 -2.51184,5.13987 -5.09199,11.7846 -9.44499,24.32379 -2.43657,7.01883 -3.23901,9.84588 -4.51911,15.92121 -0.57768,2.7417 -1.71819,7.70067 -2.53443,11.01996 -0.9318,3.78903 -1.71924,7.93305 -2.11587,11.13504 -0.34746,2.805 -1.15185,7.7325 -1.78755,10.95 -2.05209,10.38615 -2.58978,21.90546 -2.89521,62.025 l -0.20151,26.475 -36.06651,0 -36.0665,0 -0.1896,-8.625 c -0.4612,-20.97951 -0.8232,-32.55054 -1.10985,-35.475 -0.2843,-2.90064 -1.89094,-10.72137 -2.7117,-13.2 -0.65349,-1.97349 -5.05961,-11.44893 -6.25488,-13.45125 -3.48514,-5.8383 -10.73148,-12.06576 -17.10247,-14.69778 -1.72007,-0.71061 -11.84545,-3.33789 -16.03275,-4.1601 -2.98829,-0.58677 -11.00768,-0.64962 -14.41725,-0.11298 -7.54128,1.18695 -20.97751,4.62108 -22.3435,5.71068 -0.41608,0.33192 -2.444,1.47684 -4.5065,2.54433 -5.18443,2.68332 -8.5391,4.84281 -12.75,8.20761 -5.18057,4.13964 -15.5178,13.3209 -17.01904,15.11592 -0.70453,0.8424 -2.54698,3.01605 -4.09433,4.83039 -1.54736,1.81431 -3.4762,4.46076 -4.28631,5.88096 -0.81012,1.42023 -1.93595,2.98722 -2.50186,3.48222 -2.51365,2.1987 -15.89807,27.23271 -18.44846,34.5057 -1.53489,4.37706 -3.60953,8.29767 -4.66461,8.81505 -0.67653,0.33177 -3.84365,0.47061 -14.97171,0.65631 -15.31576,0.25563 -47.165147,0.24711 -54.163687,-0.0144 z"
     id="path3412"
     inkscape:connector-curvature="0" />
  <path
     id="path3406"
     style="fill:#000000"
     d="m 645.81573,346.86522 c 1.64166,-0.99837 3.66225,-3.13107 4.27161,-4.50861 0.46122,-1.04268 0.58938,-2.03073 0.60312,-4.65045 0.0231,-4.42461 -0.48186,-5.96538 -2.57115,-7.84383 -4.53663,-4.0788 -9.14229,-4.28424 -14.25051,-0.63567 -1.39296,0.99492 -2.56047,2.87883 -3.99192,6.44133 l -0.87927,2.18832 1.2018,2.51799 c 1.72926,3.62316 4.22085,6.31326 6.5643,7.08729 0.43356,0.14322 2.43345,0.19785 4.44417,0.12144 2.91198,-0.11064 3.8496,-0.25671 4.60785,-0.71781 z m 78.98874,212.34735 c -1.13292,-0.72576 -3.92331,-0.90654 -25.4379,-1.64802 -15.55659,-0.53613 -14.50278,-0.36015 -15.1788,-2.53485 -0.17952,-0.5775 -0.85512,-6.99 -1.50132,-14.25 -2.30922,-25.94376 -6.35256,-46.85997 -12.09165,-62.55 -3.92361,-10.72674 -8.53023,-19.38687 -12.95718,-24.35868 -1.22004,-1.37022 -2.22219,-2.5743 -2.22696,-2.6757 -0.0144,-0.30789 -6.3552,-5.78754 -7.95867,-6.87789 -1.19637,-0.81351 -6.37227,-3.28773 -6.87771,-3.28773 -0.30456,0 -3.13533,4.69917 -6.77697,11.25 -4.61763,8.30652 -7.39467,12.48474 -13.1058,19.71867 -6.22485,7.88463 -8.20044,10.14117 -13.73952,15.69363 -9.19395,9.21612 -22.09839,18.66813 -33.10233,24.24615 -8.91303,4.51812 -22.1283,9.34428 -28.92951,10.56498 -9.14001,1.64046 -22.25484,2.32917 -28.56816,1.50021 -11.27823,-1.48086 -22.77723,-5.71155 -30.83406,-11.34441 -16.21365,-11.33562 -26.47359,-28.89291 -31.4262,-53.77791 -0.68946,-3.46428 -1.43772,-6.77178 -1.66278,-7.35 -0.73749,-1.89462 -1.02696,-7.08981 -1.02696,-18.43101 0,-11.55573 0.30489,-17.06955 1.0296,-18.62031 0.23133,-0.495 0.97884,-2.67156 1.6611,-4.83681 1.97805,-6.27738 6.93168,-15.5736 13.08891,-24.56319 4.41705,-6.44895 4.22712,-6.42276 11.55627,-1.59285 2.86776,1.88985 6.44193,4.20147 7.94256,5.13693 4.26102,2.65617 14.23011,7.24494 21.27156,9.79134 3.49029,1.26219 7.05,2.95206 7.05,3.3468 0,0.17031 -0.41094,0.90696 -0.91323,1.63698 -4.05444,5.89296 -7.29729,13.82559 -8.9448,21.8808 -1.97193,9.64134 -1.57854,19.89093 0.97872,25.5 3.98592,8.74266 22.38975,16.36755 34.82931,14.43012 8.56953,-1.33467 14.58108,-4.52709 18.56142,-9.85698 3.06501,-4.10418 4.09491,-6.8013 6.21114,-16.26561 0.81075,-3.62583 1.67064,-7.27083 1.91088,-8.1 0.24021,-0.82914 0.85824,-3.66753 1.37334,-6.30753 0.5151,-2.64 1.54515,-7.635 2.28897,-11.1 0.74385,-3.465 2.95419,-14.13 4.91193,-23.7 6.93459,-33.89871 7.57293,-36.83145 12.40614,-57 5.08572,-21.22224 13.28586,-48.20992 17.69334,-58.23099 1.09608,-2.49205 1.99284,-4.62512 1.99284,-4.74017 0,-0.55476 5.6136,-12.2474 7.73184,-16.10472 6.66747,-12.14153 15.88581,-24.52586 23.16816,-31.12511 11.97285,-10.84976 18.65346,-15.07711 34.7448,-21.98567 4.66368,-2.00229 15.90078,-5.15814 24.03732,-6.75072 3.72234,-0.72858 7.37538,-1.51763 8.11788,-1.75344 2.40684,-0.76441 12.60996,-1.05928 36.49926,-1.05482 23.57461,0.004 32.11279,0.25098 35.95075,1.0383 1.155,0.23693 6.42,0.76915 11.7,1.18272 15.14949,1.1866 37.51783,3.80881 42.75003,5.01153 6.3503,1.45974 23.8654,6.59472 30.6993,9.00024 17.4556,6.14441 29.1011,10.9582 41.3007,17.07207 8.594,4.30696 11.928,6.18415 22.05,12.41514 8.4262,5.18716 18.7761,13.28284 27.4282,21.45441 4.8692,4.59877 16.3899,17.46121 18.2412,20.36572 0.5979,0.93803 2.6343,3.92089 4.5252,6.62857 3.2822,4.69983 10.6738,17.11188 13.4152,22.52694 3.3987,6.71316 9.03356,20.45148 12.30477,30 3.5413,10.33677 6.7608,21.82068 11.0598,39.45 2.3484,9.63024 3.3198,14.25033 6.7807,32.25 3.337,17.35506 4.1309,21.21225 4.5148,21.93423 0.3281,0.61692 6.2042,3.02466 9.7301,3.98691 4.1661,1.13697 8.9642,1.97886 11.2779,1.97886 4.2553,0 9.6865,-1.56696 16.2682,-4.6935 4.5418,-2.15751 7.1975,-2.93478 9.0531,-2.64969 2.1074,0.32379 3.9434,1.04016 4.6827,1.82715 0.7004,0.74553 0.7181,0.89253 0.7181,5.95872 0,4.58253 -0.064,5.26467 -0.5404,5.7915 -0.2973,0.32847 -1.0162,1.59138 -1.5977,2.8065 -1.8831,3.93549 -5.8573,8.69604 -9.5619,11.454 -2.4859,1.8507 -10.6065,5.98101 -16.2561,8.26818 -6.5994,2.67171 -12.7827,3.5127 -19.0772,2.59464 -1.9434,-0.28344 -3.7114,-0.447 -3.9291,-0.36345 -0.4756,0.18249 -0.453,-0.14901 -1.8426,27.05595 -0.5815,11.385 -1.4629,27.045 -1.9586,34.8 -1.5726,24.60174 -1.4177,23.52849 -3.4875,24.15801 -2.1411,0.65121 -24.60927,0.92181 -65.49887,0.78882 -22.1925,-0.0721 -40.7766,-0.22701 -41.2979,-0.3441 -0.6045,-0.13575 -1.0146,-0.44655 -1.1321,-0.85779 -0.1013,-0.35472 -0.3125,-4.08744 -0.4693,-8.29494 -0.3429,-9.20307 -0.6948,-12.84048 -1.6834,-17.4 -2.1191,-9.77424 -7.612,-21.19737 -13.7313,-28.55631 -1.6741,-2.01312 -5.0975,-5.15085 -9.06,-8.3037 -1.1681,-0.92949 -2.6329,-2.09499 -3.2551,-2.58999 -2.2699,-1.80612 -5.2069,-3.39063 -9.0209,-4.86681 -8.9421,-3.46098 -16.9531,-4.26339 -24.8273,-2.48688 -5.9006,1.33128 -10.8154,3.22518 -14.2802,5.50287 -7.5019,4.93155 -15.5899,13.93935 -19.50173,21.71967 -5.92101,11.77629 -10.34289,30.30723 -11.31798,47.43048 l -0.21066,3.69936 -35.28108,-0.14187 c -27.03619,-0.10872 -35.70172,-0.23145 -37.08109,-0.52509 -2.36658,-0.50382 -3.3411,-0.47328 -4.00266,0.12543 -0.70842,0.6411 -1.18995,0.6156 -2.34486,-0.12429 z m -262.30248,19.40385 c 0,-0.22728 0.20928,-0.58695 0.46506,-0.79923 0.3831,-0.31794 0.54795,-0.30306 0.93549,0.0845 0.25875,0.25875 0.37899,0.61842 0.26724,0.79923 -0.29565,0.47835 -1.66779,0.40887 -1.66779,-0.0845 z"
     inkscape:connector-curvature="0" />
</svg>
