<?xml version="1.0" encoding="UTF-8" standalone="no"?>
<!-- Created with Inkscape (http://www.inkscape.org/) -->
<svg
   xmlns:svg="http://www.w3.org/2000/svg"
   xmlns="http://www.w3.org/2000/svg"
   version="1.0"
   width="950"
   height="140"
   id="svg2"
   xml:space="preserve"><defs
     id="defs5" /><path
     d="M 579.30905,11.609657 C 576.11363,11.806308 572.86754,14.782782 574.36524,18.10502 C 576.23859,22.279958 579.90963,28.556282 584.2792,26.625208 C 588.18579,24.903245 585.9527,16.932395 583.17465,13.292658 C 582.19119,12.00642 580.76157,11.520283 579.30905,11.609657 z M 369.3285,16.737583 C 364.67199,16.94687 360.37998,18.718395 357.44232,21.655145 C 355.11345,23.985007 353.89225,26.78097 353.89223,29.754582 C 353.89223,32.735595 355.11344,35.550333 357.44232,37.88027 C 360.57584,41.012758 365.26195,42.797745 370.27519,42.797833 C 379.3192,42.797833 386.65816,36.946295 386.65814,29.754582 C 386.65814,26.780895 385.43691,23.985007 383.10807,21.655145 C 379.97558,18.522658 375.29579,16.73742 370.27519,16.737583 C 369.96187,16.737583 369.63894,16.72362 369.3285,16.737583 z M 684.1284,18.052432 C 683.26932,18.04502 682.39474,18.30177 681.6039,18.867595 C 677.87808,21.529845 673.4066,28.487033 676.63384,31.27972 C 680.24387,34.405895 685.61474,29.49052 688.62522,26.046682 C 691.46427,22.807495 687.85111,18.084495 684.1284,18.052432 z M 566.34465,18.604708 C 563.0686,18.668907 559.37964,22.724183 561.47978,25.441895 C 564.26514,29.073983 568.87235,35.713495 572.6559,32.80502 C 576.04193,30.200583 571.93542,23.78187 569.23739,20.077333 C 568.46137,19.013845 567.43675,18.583245 566.34465,18.604708 z M 889.0074,22.259933 C 887.50516,22.259933 886.04684,22.646258 884.61579,23.416995 C 883.18481,24.187895 882.05224,25.295395 881.24979,26.730395 C 880.44733,28.16532 880.06646,29.66967 880.06646,31.227208 C 880.06639,32.768833 880.4592,34.248358 881.24979,35.671333 C 882.04038,37.094395 883.14409,38.198195 884.56319,38.984745 C 885.9823,39.771382 887.45779,40.168145 889.0074,40.168145 C 890.55694,40.168057 892.05869,39.771545 893.47779,38.984745 C 894.89698,38.198107 895.97823,37.09457 896.76494,35.671333 C 897.55158,34.248283 897.94826,32.76892 897.94834,31.227208 C 897.94826,29.66967 897.56344,28.165245 896.76494,26.730395 C 895.96644,25.29547 894.83,24.18797 893.39894,23.416995 C 891.96798,22.646183 890.50949,22.26002 889.0074,22.259933 z M 94.81541,22.86472 C 85.83934,23.030658 73.776858,24.16332 64.416221,27.466708 C 57.782036,29.803133 56.537678,34.998132 55.633065,38.77437 C 55.633056,38.774195 55.343799,39.845183 55.343799,39.852583 C 49.707877,61.918983 51.526544,99.463357 59.130549,118.58535 C 59.166304,118.67892 59.18735,118.72318 59.20944,118.79572 C 59.209456,118.79581 59.20944,118.86733 59.20944,118.87466 C 59.24623,119.01241 60.106689,122.35316 64.67919,123.42397 C 106.0263,133.10426 126.0582,123.06221 134.31332,116.21871 C 141.47555,110.2789 145.22021,102.46751 144.85837,94.23452 C 144.17885,78.658195 130.44347,73.74812 122.42713,70.882895 C 121.50884,70.549245 120.03832,70.21382 119.19261,69.90987 C 118.26592,69.584882 118.31851,69.268233 119.24521,68.805408 C 120.16347,68.342658 122.00638,67.46422 122.00638,67.46422 C 125.83415,65.641532 138.14425,58.32452 135.99632,44.086333 C 133.42027,27.027195 111.39507,23.727332 104.70304,23.12777 C 104.57998,23.120445 104.59049,23.12777 104.59785,23.12777 C 102.33698,22.91967 98.89544,22.78932 94.81541,22.86472 z M 293.19904,22.86472 C 284.22153,23.030658 272.15615,24.16332 262.79985,27.466708 C 256.16569,29.803133 254.92025,34.998132 254.01669,38.77437 C 254.01669,38.774195 253.73479,39.845183 253.72743,39.852583 C 248.09886,61.918983 249.90282,99.463357 257.51418,118.58535 C 257.54993,118.67892 257.57834,118.72318 257.59307,118.79572 C 257.59309,118.79581 257.59307,118.86733 257.59307,118.87466 C 257.62884,119.01241 258.48296,122.35316 263.06283,123.42397 C 304.40993,133.10426 324.4229,123.06221 332.67065,116.21871 C 339.83287,110.2789 343.60384,102.46751 343.242,94.23452 C 342.56145,78.658195 328.81974,73.74812 320.81077,70.882895 C 319.88405,70.549245 318.41564,70.21382 317.57624,69.90987 C 316.65057,69.584882 316.71055,69.268233 317.62884,68.805408 C 318.55553,68.342658 320.39002,67.46422 320.39002,67.46422 C 324.21675,65.641532 336.52893,58.32452 334.37995,44.086333 C 331.80393,27.027195 309.77239,23.727332 303.08666,23.12777 C 302.96358,23.120445 302.97411,23.12777 302.98148,23.12777 C 300.7206,22.91967 297.27973,22.78932 293.19904,22.86472 z M 889.0074,23.758895 C 890.25653,23.758895 891.49514,24.061245 892.68897,24.705582 C 893.88273,25.34992 894.80829,26.295258 895.47635,27.49297 C 896.14443,28.690758 896.47564,29.93062 896.47572,31.227208 C 896.47564,32.515883 896.13255,33.75322 895.47635,34.93502 C 894.82015,36.116995 893.90115,37.03617 892.71523,37.696158 C 891.5293,38.356395 890.296,38.669345 889.0074,38.669183 C 887.71865,38.669183 886.48535,38.356483 885.2995,37.696158 C 884.11358,37.036082 883.19853,36.11717 882.53829,34.93502 C 881.87814,33.753057 881.53909,32.515883 881.53909,31.227208 C 881.53901,29.930545 881.86635,28.690845 882.53829,27.49297 C 883.21031,26.295258 884.16221,25.350008 885.3521,24.705582 C 886.54198,24.061245 887.75029,23.758808 889.0074,23.758895 z M 515.61802,24.363683 C 506.56904,24.308558 498.12904,26.79402 491.74045,31.174532 C 481.82128,37.96762 475.57103,46.636082 475.67303,60.180033 C 475.78873,76.660633 503.54772,88.975145 503.54772,88.975145 C 518.52432,96.433783 511.623,107.03475 501.02321,105.0951 C 491.68365,103.38795 484.33205,99.063645 478.27645,94.707782 C 476.10539,93.145795 472.45849,94.253458 472.38595,98.652395 C 472.35019,101.11177 472.33336,107.75103 472.33336,107.75103 C 472.31864,109.74143 473.66293,111.7798 475.59418,113.66787 C 480.4275,118.377 491.79406,127.52628 515.90733,127.52628 C 533.5535,127.52653 553.20682,120.19682 555.61553,97.73197 C 556.83149,86.431633 549.72611,72.760458 526.24195,62.783458 C 518.01529,59.28922 514.35265,55.452895 516.69615,50.05577 C 518.91772,44.911845 527.23072,44.04847 534.84108,47.55752 C 543.39283,51.492795 550.91364,37.864545 543.15089,32.778683 C 534.33879,27.012382 524.667,24.418795 515.61802,24.363683 z M 840.51596,24.363683 C 831.46614,24.308558 823.00377,26.79402 816.61207,31.174532 C 806.7002,37.96762 800.47739,46.636082 800.57097,60.180033 C 800.694,76.660633 828.4194,88.975145 828.4194,88.975145 C 843.3949,96.433783 836.51985,107.03475 825.92116,105.0951 C 816.58052,103.38795 809.23733,99.063645 803.1744,94.707782 C 801.01175,93.145795 797.3301,94.253458 797.25756,98.652395 C 797.21448,101.11177 797.20497,107.75103 797.20497,107.75103 C 797.19024,109.74143 798.55238,111.7798 800.49204,113.66787 C 805.31703,118.377 816.69092,127.52628 840.80519,127.52628 C 858.44413,127.52653 878.09737,120.19682 880.51348,97.73197 C 881.72835,86.431633 874.59883,72.760458 851.11357,62.783458 C 842.8879,59.28922 839.23058,55.452895 841.56784,50.05577 C 843.7894,44.911845 852.12758,44.04847 859.73894,47.55752 C 868.28337,51.492795 875.78525,37.864545 868.02242,32.778683 C 859.21039,27.012382 849.56571,24.418795 840.51596,24.363683 z M 203.4741,24.574058 C 201.71185,24.576407 199.64673,24.652908 197.16285,24.784433 C 184.65397,25.435757 180.71048,30.543408 176.86166,37.17022 C 160.03272,63.577745 146.04804,111.33061 145.91024,111.80083 C 144.26828,117.58918 144.49231,119.30702 160.66279,124.58103 C 167.66616,126.85939 172.25971,127.2634 174.70532,125.81703 C 176.29051,124.88423 176.91321,123.13366 177.3613,120.76803 C 177.57906,119.62468 178.24172,117.38941 179.33357,114.14122 L 179.62284,113.27346 C 179.62282,113.27355 179.80376,112.87367 180.20137,112.93156 C 180.59267,113.00393 181.09546,113.08935 181.09546,113.08935 C 190.01641,114.565 203.36155,113.50168 214.30841,110.4334 C 214.30842,110.43323 214.81858,110.30086 215.2814,110.17035 C 215.73686,110.04017 215.93882,110.51224 215.93882,110.51224 L 216.22809,111.48527 C 218.06569,117.25148 219.38687,121.58739 219.85706,123.34512 C 220.28411,124.95862 221.10353,125.98953 222.35526,126.47441 C 224.6494,127.35706 229.51642,127.02248 239.71119,120.45247 C 250.69384,113.37032 249.79237,110.31138 248.75732,106.75183 C 248.62688,106.30382 248.50487,105.82088 248.38917,105.35806 C 241.20486,77.829395 224.41378,44.064295 215.33399,29.912283 C 212.76578,25.909095 211.11055,24.563958 203.4741,24.574058 z M 622.46227,24.942207 C 577.64793,25.175558 568.17381,66.777645 593.87753,82.847933 C 595.35965,83.773583 594.46665,85.879432 592.6942,89.18552 C 590.47996,93.317283 584.2118,98.71652 576.67936,102.62318 C 571.64408,105.22763 564.13883,109.61924 569.07953,116.29756 C 569.07953,116.29756 574.91332,123.76057 580.86053,126.55334 C 588.0301,129.91093 593.12539,128.41508 599.26834,124.29181 C 602.58183,122.07024 612.85015,111.47769 622.1467,99.756783 C 626.09014,94.801445 631.85543,96.898708 631.29801,104.14841 C 631.29801,104.14841 630.32609,115.54357 630.03576,117.90171 C 629.22574,124.71046 632.64333,127.21796 638.71365,127.21072 C 638.71365,127.21072 647.89231,126.62798 652.41436,125.94847 C 658.78873,124.98605 660.46442,118.98203 661.72347,115.21935 C 670.58657,88.84892 670.40143,49.030232 670.40143,49.030145 C 671.13985,39.009995 667.6897,35.842833 663.19609,33.962083 C 661.57519,33.28257 656.25371,30.07427 640.55452,26.861845 C 633.98418,25.519057 627.96577,24.91352 622.46227,24.942207 z M 445.35276,25.205182 C 434.65407,25.224707 419.97208,26.506057 412.06093,28.67637 C 400.33252,31.895945 398.97875,40.331145 397.8869,47.11052 C 396.62045,54.959608 394.43675,84.010208 398.59692,108.14553 C 399.86968,115.53912 403.61647,119.65515 411.92944,122.7666 C 421.94223,126.52793 451.10336,127.68937 457.81749,124.60737 C 462.2091,122.86446 462.88753,119.70033 463.23464,119.0061 C 464.58104,116.31456 466.44286,109.35939 466.44286,103.33316 C 466.44286,101.92272 466.0137,100.88229 465.10177,100.15128 C 463.4955,98.86387 460.76694,98.85537 459.42164,99.151995 C 455.39918,100.02817 446.78122,100.04398 437.54259,99.993495 C 437.54259,99.993333 434.86978,100.1018 433.62437,98.626058 C 432.93746,97.816032 432.46414,96.601157 432.57249,95.444095 L 432.91434,91.315532 C 433.10996,89.144458 434.94342,87.50042 437.12184,87.528783 C 444.60278,87.629757 459.94016,86.281257 460.7364,86.187595 C 461.98821,86.035032 463.93208,84.231195 464.36545,82.19047 C 464.69153,80.692858 465.10387,76.065445 465.15428,72.223995 C 465.19004,68.802208 460.86162,68.076408 460.78908,68.069095 C 459.53835,67.867045 448.13603,66.099982 439.54115,65.28162 C 438.38306,65.173407 437.3238,64.57687 436.6222,63.65122 C 435.92059,62.72447 435.62398,61.532733 435.8333,60.390408 C 436.01424,59.362595 436.20986,58.195183 436.41183,56.892958 C 436.7453,54.794595 438.62393,53.287133 440.75081,53.395433 C 445.72199,53.649058 454.92273,54.149583 460.71014,54.605082 C 467.96706,55.18472 469.102,52.231045 469.78253,48.635658 C 470.42635,45.199395 467.94494,35.931195 466.75843,33.094245 C 465.64453,30.40372 463.13265,26.698845 454.31997,25.599595 C 452.034,25.31382 448.919,25.198707 445.35276,25.205182 z M 885.08913,26.546283 L 885.08913,36.17102 L 886.6406,36.17102 L 886.6406,32.068708 L 887.56104,32.068708 C 888.10658,32.068708 888.51235,32.189295 888.79703,32.41052 C 889.2081,32.710945 889.75541,33.452045 890.42735,34.64572 L 891.26885,36.17102 L 893.16223,36.17102 L 892.00517,34.277645 C 891.44389,33.38422 890.97257,32.76362 890.58522,32.38427 C 890.37964,32.186608 890.10994,32.000458 889.76998,31.858333 C 890.60012,31.795057 891.2665,31.51222 891.76854,30.990495 C 892.27058,30.468682 892.50485,29.853458 892.50485,29.149708 C 892.50485,28.651633 892.35827,28.17222 892.05784,27.729683 C 891.75734,27.28697 891.35418,26.987145 890.8481,26.809332 C 890.34212,26.631445 889.53309,26.546107 888.40254,26.546283 L 885.08913,26.546283 z M 726.62415,26.704145 C 724.01155,26.617307 721.46955,27.744908 719.26103,31.490095 C 717.58955,34.34067 703.4272,59.205145 703.16734,91.184083 C 702.91388,121.95345 734.52264,138.03031 762.99278,119.40059 C 795.59982,98.058045 797.42485,49.736845 796.02165,33.567583 C 795.6524,29.364295 793.22148,27.124808 789.18447,27.124895 C 787.53504,27.124895 782.38304,27.430107 777.74528,28.045245 C 773.13597,28.659532 771.82844,32.233645 771.82853,35.75027 C 771.82853,39.266645 774.07323,65.966433 760.36309,84.951683 C 746.66026,103.92852 735.18751,91.85602 735.93325,80.744183 C 737.03242,64.41487 746.28159,46.895933 748.29278,42.114032 C 750.07988,37.896095 748.70621,34.052633 745.97865,32.778683 C 742.98401,31.381795 734.65728,28.94557 730.20053,27.440458 C 729.01124,27.038058 727.81168,26.743532 726.62415,26.704145 z M 886.6406,27.83487 L 888.40254,27.83487 C 889.16149,27.83487 889.67345,27.90842 889.95409,28.018908 C 890.23474,28.129645 890.47962,28.29332 890.63773,28.518583 C 890.79585,28.743945 890.87444,28.99647 890.87444,29.281157 C 890.87444,29.723957 890.70286,30.064345 890.37484,30.333032 C 890.04667,30.601895 889.43523,30.753608 888.53398,30.753783 L 886.6406,30.753783 L 886.6406,27.83487 z M 694.96272,28.702707 C 694.28656,28.718445 693.59697,28.917458 692.9379,29.412683 C 689.27729,32.154033 683.46884,37.109295 685.94284,40.588895 C 688.70617,44.481932 695.069,39.475932 698.80206,36.828395 C 701.94649,34.58757 698.61399,28.61772 694.96272,28.702707 z M 97.471395,44.32297 C 101.76275,44.271808 106.3103,44.768883 109.04202,46.68977 C 110.63352,47.812083 111.5539,49.306758 111.82949,51.107645 C 112.19026,53.487908 111.46028,55.80212 109.67315,57.813307 C 105.76651,62.205008 97.394608,64.648395 87.294504,64.308595 C 87.294504,64.30842 86.258406,64.256082 85.795581,64.256082 C 85.331696,64.255832 85.295941,63.730145 85.295941,63.730145 C 85.295924,63.729983 84.719514,46.914782 84.770004,46.400458 C 84.799456,46.133208 84.838375,45.90187 84.954081,45.821932 C 85.252638,45.622495 86.232126,45.486683 86.453004,45.45377 C 86.827538,45.380395 91.95394,44.38877 97.471395,44.32297 z M 295.85503,44.32297 C 300.14479,44.271808 304.66764,44.768883 307.39935,46.68977 C 308.99084,47.812083 309.93858,49.306758 310.21312,51.107645 C 310.57497,53.487908 309.81761,55.80212 308.03048,57.813307 C 304.12382,62.205008 295.77824,64.648395 285.67814,64.308595 C 285.67813,64.30842 284.63468,64.256082 284.17921,64.256082 C 283.7164,64.255832 283.67958,63.730145 283.67958,63.730145 L 283.62698,62.25752 L 283.15364,47.583783 C 283.15364,47.583945 283.10314,46.914782 283.15364,46.400458 C 283.17574,46.133208 283.222,45.90187 283.33772,45.821932 C 283.63433,45.618882 284.66728,45.483232 284.86293,45.45377 C 285.23745,45.380395 290.33961,44.38877 295.85503,44.32297 z M 366.27807,47.61012 C 351.2111,47.72052 350.53101,57.648458 350.02659,60.521845 C 348.69492,68.024907 346.60169,94.098957 349.26398,117.03387 C 350.09602,124.21818 357.19093,127.43575 370.45927,126.55334 C 380.42158,125.88746 384.70058,122.79521 386.55295,120.32102 C 388.29592,117.99848 388.79453,114.99215 387.99928,111.4326 C 384.68483,96.52862 385.11924,67.691595 385.84294,59.233345 C 386.11012,56.100857 385.57049,53.89932 384.15994,52.343558 C 381.7869,49.724382 376.83256,47.939395 367.80328,47.636457 C 367.28688,47.618958 366.76409,47.606583 366.27807,47.61012 z M 625.69674,50.05577 C 631.2758,49.962958 636.67933,50.825833 638.39809,51.449458 C 640.09169,52.07217 639.46899,67.646158 637.31997,67.88497 C 632.72638,68.399382 610.31833,70.84907 610.83897,57.602932 C 611.07097,51.856495 618.52363,50.175007 625.69674,50.05577 z M 198.74067,66.88577 C 198.89345,66.884845 199.04781,67.109782 199.21401,67.569408 C 199.33707,67.93117 210.56059,92.498845 210.49537,92.498845 C 210.62581,92.789245 210.97818,93.525558 209.94313,93.655907 C 203.54035,94.50262 194.17448,94.694145 187.59079,94.129333 C 186.79453,94.05672 186.8955,93.461358 187.09115,92.998533 C 187.29418,92.535708 197.98542,68.240583 198.26732,67.516895 C 198.43035,67.090345 198.58788,66.886607 198.74067,66.88577 z M 95.393941,82.243145 C 100.88613,82.22337 107.87418,82.890183 111.7769,86.003558 C 113.67975,87.522633 114.74844,89.479957 114.95882,91.78887 C 115.25545,95.015095 114.45392,97.673058 112.5658,99.677933 C 108.0301,104.48905 97.846914,104.53658 86.90005,104.17466 C 86.900041,104.17475 86.019631,104.25148 85.295941,104.12215 C 84.775246,104.02757 84.7963,103.56987 84.7963,103.56987 L 84.848894,101.99206 L 85.6378,84.741308 C 85.6378,84.741308 85.690394,83.790408 85.690394,83.400208 C 85.690411,83.00142 86.137441,82.900533 86.137441,82.900533 L 87.452285,82.742745 C 87.762461,82.701845 91.122243,82.258458 95.393941,82.243145 z M 293.77758,82.243145 C 299.27055,82.22337 306.25367,82.890183 310.16053,86.003558 C 312.06334,87.522633 313.13313,89.479957 313.34245,91.78887 C 313.64644,95.015095 312.83755,97.673058 310.94943,99.677933 C 306.41267,104.48905 296.22949,104.53658 285.28368,104.17466 C 285.2837,104.17475 284.40327,104.25148 283.67958,104.12215 C 283.15888,104.02757 283.17993,103.56987 283.17993,103.56987 L 283.25883,101.99206 L 284.02143,84.741308 C 284.02143,84.741308 284.07403,83.790408 284.07403,83.400208 C 284.07404,83.00142 284.52108,82.900533 284.52108,82.900533 L 285.83591,82.742745 C 286.14609,82.701845 289.50525,82.258458 293.77758,82.243145 z"
     id="path23"
     style="fill:#604c89;fill-opacity:1;fill-rule:nonzero;stroke:none" /></svg>